#define imageprocessorx_width 16
#define imageprocessorx_height 16
static unsigned char imageprocessorx_bits[] = {
   0x00, 0x00, 0x1c, 0x38, 0x3e, 0x7c, 0x7e, 0x7e, 0xfc, 0x3f, 0x18, 0x1c,
   0xb0, 0x0a, 0xa0, 0x02, 0xa0, 0x04, 0xb0, 0x0e, 0x18, 0x1e, 0xfc, 0x3f,
   0x7e, 0x7e, 0x3e, 0x7c, 0x1c, 0x38, 0x00, 0x00 };
